# xmcd CD database file
#
# Track frame offsets:
#	150
#	26662
#	43175
#	67315
#	89250
#
# Disc length: 1702 seconds
#
# Revision: 0
# Processed by: cddbd v1.5.1PL0 Copyright (c) Steve Scherf et al.
# Submitted via: CDex 1.51
#
DISCID=4306a405
DTITLE=玉川紗己子 - 蒼の風景
DYEAR=1993
DGENRE=New Age
TTITLE0=十六夜
TTITLE1=凪の三日月
TTITLE2=月での約束
TTITLE3=水の記憶
TTITLE4=蒼の風景
EXTD=YEAR: 1993
EXTT0=
EXTT1=
EXTT2=
EXTT3=
EXTT4=
PLAYORDER=
